<svg preserveAspectRatio="xMidYMid meet" id="comp-kai9kwoosvgcontent" data-bbox="0.003 0.006 1000.008 618.031" width="1000.008" height="618.031" viewBox="0.003 0.006 1000.008 618.031" xmlns="http://www.w3.org/2000/svg" data-type="color" role="img">
    <g>
        <path fill="#ff5f00" d="M635.201 66.1v485.842H364.813V66.1H635.2z" data-color="1"></path>
        <path d="M381.98 309.021c0-98.713 46.352-186.267 117.598-242.92C447.217 24.899 381.122.006 309.018.006 138.201.006.003 138.205.003 309.021S138.2 618.037 309.018 618.037c72.104 0 138.199-24.893 190.56-66.095-71.246-55.795-117.598-144.207-117.598-242.92z" fill="#eb001b" data-color="2"></path>
        <path d="M1000.01 309.021c0 170.817-138.198 309.016-309.015 309.016-72.103 0-138.198-24.893-190.559-66.095 72.104-56.653 117.597-144.207 117.597-242.92S571.681 122.753 500.436 66.1C552.796 24.899 618.892.006 690.996.006c170.816 0 309.015 139.057 309.015 309.015z" fill="#f79e1b" data-color="3"></path>
    </g>
</svg>